<svg width="37" height="34" viewBox="0 0 37 34" fill="none" xmlns="http://www.w3.org/2000/svg">
<path d="M28.1567 15.6055C32.8143 15.6055 36.5901 12.229 36.5901 8.06384C36.5901 3.89872 32.8143 0.522217 28.1567 0.522217C23.4991 0.522217 19.7234 3.89872 19.7234 8.06384C19.7234 12.229 23.4991 15.6055 28.1567 15.6055Z" fill="#E8618C"/>
<path d="M28.1567 33.6226C32.8143 33.6226 36.5901 30.2461 36.5901 26.0809C36.5901 21.9158 32.8143 18.5393 28.1567 18.5393C23.4991 18.5393 19.7234 21.9158 19.7234 26.0809C19.7234 30.2461 23.4991 33.6226 28.1567 33.6226Z" fill="#22CCB2"/>
<path d="M0.253357 13.3046C0.253357 6.22394 6.67214 0.483887 14.59 0.483887V20.8462C14.59 27.927 8.17125 33.667 0.253357 33.667V13.3046Z" fill="#636AE8"/>
</svg>
