<svg width="178" height="48" viewBox="0 0 178 48" fill="none" xmlns="http://www.w3.org/2000/svg">
<path d="M58.976 35.384C57.696 35.384 56.48 35.256 55.328 35C54.176 34.744 53.152 34.3387 52.256 33.784C51.3813 33.208 50.688 32.4933 50.176 31.64C49.6853 30.7653 49.44 29.7093 49.44 28.472C49.44 28.3653 49.44 28.2587 49.44 28.152C49.44 28.024 49.4507 27.928 49.472 27.864H54.208C54.1867 27.928 54.176 28.0133 54.176 28.12C54.176 28.2267 54.176 28.3227 54.176 28.408C54.176 29.0907 54.3573 29.6667 54.72 30.136C55.104 30.6053 55.6587 30.9573 56.384 31.192C57.1093 31.4267 57.952 31.544 58.912 31.544C59.5307 31.544 60.0747 31.512 60.544 31.448C61.0347 31.3627 61.4613 31.256 61.824 31.128C62.208 30.9787 62.5173 30.808 62.752 30.616C63.008 30.424 63.1893 30.2 63.296 29.944C63.424 29.688 63.488 29.4 63.488 29.08C63.488 28.504 63.296 28.0347 62.912 27.672C62.5493 27.3093 62.0373 27 61.376 26.744C60.736 26.488 60.0107 26.2533 59.2 26.04C58.3893 25.8267 57.5573 25.6133 56.704 25.4C55.8507 25.1653 55.0187 24.888 54.208 24.568C53.3973 24.2267 52.672 23.8213 52.032 23.352C51.392 22.8827 50.88 22.2853 50.496 21.56C50.112 20.8347 49.92 19.96 49.92 18.936C49.92 17.848 50.144 16.9093 50.592 16.12C51.0613 15.3307 51.712 14.68 52.544 14.168C53.376 13.656 54.336 13.2827 55.424 13.048C56.512 12.792 57.696 12.664 58.976 12.664C60.1707 12.664 61.3013 12.792 62.368 13.048C63.4347 13.2827 64.3733 13.6667 65.184 14.2C65.9947 14.7333 66.624 15.4053 67.072 16.216C67.5413 17.0267 67.776 17.9867 67.776 19.096V19.48H63.136V19.224C63.136 18.648 62.9653 18.1573 62.624 17.752C62.2827 17.3467 61.8027 17.0267 61.184 16.792C60.5653 16.5573 59.84 16.44 59.008 16.44C58.112 16.44 57.344 16.5253 56.704 16.696C56.0853 16.8667 55.6053 17.1227 55.264 17.464C54.944 17.784 54.784 18.168 54.784 18.616C54.784 19.128 54.9653 19.5547 55.328 19.896C55.712 20.216 56.224 20.504 56.864 20.76C57.5253 20.9947 58.2613 21.208 59.072 21.4C59.8827 21.592 60.7147 21.8053 61.568 22.04C62.4213 22.2747 63.2533 22.552 64.064 22.872C64.8747 23.192 65.6 23.5973 66.24 24.088C66.88 24.5573 67.392 25.144 67.776 25.848C68.16 26.552 68.352 27.3947 68.352 28.376C68.352 30.0613 67.9467 31.416 67.136 32.44C66.3253 33.464 65.216 34.2107 63.808 34.68C62.4 35.1493 60.7893 35.384 58.976 35.384ZM71.7668 15.704V11.864L76.2148 11.864V15.704L71.7668 15.704ZM71.7668 35V18.168H76.2148V35H71.7668ZM80.298 35V18.168H83.978L84.33 20.472H84.554C84.9167 19.9173 85.3433 19.4373 85.834 19.032C86.346 18.6267 86.9113 18.3173 87.53 18.104C88.17 17.8907 88.8527 17.784 89.578 17.784C90.6447 17.784 91.562 17.9973 92.33 18.424C93.1193 18.8507 93.7273 19.5333 94.154 20.472H94.378C94.7407 19.9173 95.178 19.4373 95.69 19.032C96.202 18.6267 96.7887 18.3173 97.45 18.104C98.1113 17.8907 98.8153 17.784 99.562 17.784C100.629 17.784 101.546 17.976 102.314 18.36C103.103 18.744 103.722 19.3733 104.17 20.248C104.618 21.1013 104.842 22.2107 104.842 23.576V35H100.394V24.376C100.394 23.8427 100.33 23.3947 100.202 23.032C100.095 22.648 99.9353 22.3493 99.722 22.136C99.5087 21.9013 99.242 21.7307 98.922 21.624C98.602 21.5173 98.2607 21.464 97.898 21.464C97.3007 21.464 96.7673 21.624 96.298 21.944C95.8287 22.264 95.4553 22.7013 95.178 23.256C94.922 23.8107 94.794 24.4507 94.794 25.176V35L90.346 35V24.376C90.346 23.8427 90.282 23.3947 90.154 23.032C90.0473 22.648 89.8873 22.3493 89.674 22.136C89.4607 21.9013 89.194 21.7307 88.874 21.624C88.5753 21.5173 88.234 21.464 87.85 21.464C87.274 21.464 86.7407 21.624 86.25 21.944C85.7807 22.264 85.4073 22.7013 85.13 23.256C84.874 23.8107 84.746 24.4507 84.746 25.176V35H80.298ZM108.798 40.696V18.168H112.446L112.83 20.44H113.054C113.609 19.5227 114.334 18.8507 115.23 18.424C116.126 17.9973 117.118 17.784 118.206 17.784C119.614 17.784 120.819 18.0933 121.822 18.712C122.846 19.3307 123.625 20.2907 124.158 21.592C124.713 22.8933 124.99 24.568 124.99 26.616C124.99 28.6 124.713 30.2427 124.158 31.544C123.603 32.8453 122.825 33.816 121.822 34.456C120.841 35.0747 119.689 35.384 118.366 35.384C117.641 35.384 116.969 35.2987 116.35 35.128C115.731 34.9787 115.177 34.7333 114.686 34.392C114.195 34.0507 113.779 33.6347 113.438 33.144H113.246V40.696H108.798ZM116.83 31.736C117.726 31.736 118.43 31.5653 118.942 31.224C119.475 30.8613 119.859 30.328 120.094 29.624C120.329 28.8987 120.446 28.0133 120.446 26.968V26.232C120.446 25.1653 120.329 24.28 120.094 23.576C119.859 22.8507 119.475 22.3173 118.942 21.976C118.43 21.6133 117.726 21.432 116.83 21.432C115.998 21.432 115.315 21.624 114.782 22.008C114.249 22.392 113.854 22.9467 113.598 23.672C113.342 24.3973 113.214 25.272 113.214 26.296V26.84C113.214 27.5867 113.289 28.2693 113.438 28.888C113.587 29.4853 113.801 29.9973 114.078 30.424C114.377 30.8507 114.75 31.1813 115.198 31.416C115.646 31.6293 116.19 31.736 116.83 31.736ZM128.267 35V11.864L132.715 11.864V35H128.267ZM136.798 15.704V11.864L141.246 11.864V15.704L136.798 15.704ZM136.798 35V18.168H141.246V35H136.798ZM146.097 35V21.592H143.697V18.168H146.097V16.312C146.097 15.3947 146.247 14.584 146.545 13.88C146.865 13.1547 147.367 12.5893 148.049 12.184C148.732 11.7787 149.639 11.576 150.769 11.576C151.089 11.576 151.42 11.5973 151.761 11.64C152.124 11.6827 152.465 11.7467 152.785 11.832C153.127 11.896 153.415 11.9707 153.649 12.056V15L152.049 15C151.537 15 151.153 15.128 150.897 15.384C150.663 15.64 150.545 16.0133 150.545 16.504V18.168H153.649V21.592H150.545V35L146.097 35ZM158.168 41.016C157.378 41.016 156.717 40.952 156.184 40.824C155.672 40.7173 155.341 40.6427 155.192 40.6V37.592H157.144C157.677 37.592 158.157 37.464 158.584 37.208C159.01 36.9733 159.384 36.6533 159.704 36.248C160.024 35.864 160.258 35.448 160.408 35L153.816 18.168L158.52 18.168L161.4 25.944C161.528 26.3067 161.666 26.7653 161.816 27.32C161.986 27.8533 162.157 28.4187 162.328 29.016C162.498 29.592 162.637 30.104 162.744 30.552H162.904C162.989 30.2533 163.085 29.9013 163.192 29.496C163.298 29.0907 163.405 28.6747 163.512 28.248C163.64 27.8213 163.757 27.416 163.864 27.032C163.992 26.6267 164.098 26.2747 164.184 25.976L166.584 18.168H171.064L165.336 34.2C165.016 35.1387 164.642 36.0133 164.216 36.824C163.81 37.656 163.33 38.3813 162.776 39C162.221 39.64 161.56 40.1307 160.792 40.472C160.045 40.8347 159.17 41.016 158.168 41.016ZM170.217 35V30.424L174.857 30.424V35H170.217Z" fill="white"/>
<rect y="4" width="44" height="39" rx="6" stroke="#636AE8"/>
<path d="M32.1567 22.6055C36.8143 22.6055 40.5901 19.229 40.5901 15.0638C40.5901 10.8987 36.8143 7.52222 32.1567 7.52222C27.4991 7.52222 23.7234 10.8987 23.7234 15.0638C23.7234 19.229 27.4991 22.6055 32.1567 22.6055Z" fill="#E8618C"/>
<path d="M32.1567 40.6226C36.8143 40.6226 40.5901 37.2461 40.5901 33.0809C40.5901 28.9158 36.8143 25.5393 32.1567 25.5393C27.4991 25.5393 23.7234 28.9158 23.7234 33.0809C23.7234 37.2461 27.4991 40.6226 32.1567 40.6226Z" fill="#22CCB2"/>
<path d="M4.25336 20.3046C4.25336 13.2239 10.6721 7.48389 18.59 7.48389V27.8462C18.59 34.927 12.1712 40.667 4.25336 40.667V20.3046Z" fill="#636AE8"/>
</svg>
